<?xml version="1.0" encoding="UTF-8"?>
<svg width="62px" height="62px" viewBox="0 0 62 62" version="1.1" xmlns="http://www.w3.org/2000/svg" xmlns:xlink="http://www.w3.org/1999/xlink">
    <!-- Generator: Sketch 52.2 (67145) - http://www.bohemiancoding.com/sketch -->
    <title>Untitled</title>
    <desc>Created with Sketch.</desc>
    <g id="Page-1" stroke="none" stroke-width="1" fill="none" fill-rule="evenodd">
        <g id="noun_repairing_1445327" fill="#FFFFFF" fill-rule="nonzero">
            <path d="M60,8 C61.103,8 62,7.103 62,6 L62,1.996 L61.559,1.699 C59.906,0.587 57.984,0 56,0 C52.396,0 49.136,1.9 47.349,5 L46,5 C46,2.794 44.206,1 42,1 C40.799,1 39.734,1.542 39,2.382 C38.266,1.542 37.201,1 36,1 C34.799,1 33.734,1.542 33,2.382 C32.266,1.542 31.201,1 30,1 C28.799,1 27.734,1.542 27,2.382 C26.266,1.542 25.201,1 24,1 C21.794,1 20,2.794 20,5 L14.651,5 C12.864,1.9 9.604,0 6,0 C4.016,0 2.094,0.587 0.441,1.699 L0,1.996 L0,6 C0,7.103 0.897,8 2,8 L7,8 L7,12 L2,12 C0.897,12 0,12.897 0,14 L0,18.004 L0.441,18.301 C2.094,19.413 4.016,20 6,20 C6.702,20 7.383,19.905 8.051,19.766 L6.959,20.858 L12.056,25.956 C11.731,26.632 11.444,27.316 11.2,28 L4,28 L4,42 L11.199,42 C11.443,42.683 11.729,43.366 12.055,44.044 L6.958,49.142 L16.856,59.041 L21.954,53.943 C22.633,54.27 23.316,54.556 23.999,54.8 L23.999,62 L37.999,62 L37.999,54.801 C38.682,54.557 39.365,54.271 40.044,53.944 L45.142,59.042 L55.04,49.143 L49.943,44.045 C50.269,43.367 50.555,42.683 50.799,42.001 L58,42.001 L58,28 L50.801,28 C50.557,27.316 50.27,26.632 49.945,25.956 L55.042,20.858 L53.954,19.769 C54.619,19.908 55.3,20 56,20 C57.984,20 59.906,19.413 61.559,18.301 L62,18.004 L62,14 C62,12.897 61.103,12 60,12 L55,12 L55,8 L60,8 Z M42.488,28.926 C43.475,30.789 44,32.859 44,35 C44,38.151 42.872,41.042 41,43.295 L41,30.414 L42.488,28.926 Z M39,29.586 L39,39 L37,39 L37,41 L39,41 L39,45.226 C36.791,46.957 34.018,48 31,48 C27.982,48 25.209,46.957 23,45.226 L23,41 L35,41 L35,39 L23,39 L23,29.546 L16.024,23.442 C15.373,22.873 15,22.05 15,21.185 L15,12.5 C15,11.122 16.121,10 17.5,10 C18.879,10 20,11.122 20,12.5 L20,17 L20,17.449 L29.336,25.747 L30.664,24.252 L26.224,20.305 C26.513,20.11 26.782,19.89 27.01,19.629 C27.744,20.463 28.805,21 30,21 C31.201,21 32.266,20.458 33,19.618 C33.734,20.458 34.799,21 36,21 C37.201,21 38.266,20.458 39,19.618 C39.734,20.458 40.799,21 42,21 C42.732,21 43.409,20.788 44,20.444 L44,24.586 L39,29.586 Z M19.425,29.076 L21,30.454 L21,43.295 C19.128,41.042 18,38.151 18,35 C18,32.932 18.491,30.901 19.425,29.076 Z M42,3 C43.103,3 44,3.897 44,5 L44,6 L44,17 C44,18.103 43.103,19 42,19 C40.897,19 40,18.103 40,17 L40,5 C40,3.897 40.897,3 42,3 Z M36,3 C37.103,3 38,3.897 38,5 L38,17 C38,18.103 37.103,19 36,19 C34.897,19 34,18.103 34,17 L34,5 C34,3.897 34.897,3 36,3 Z M30,3 C31.103,3 32,3.897 32,5 L32,17 C32,18.103 31.103,19 30,19 C28.897,19 28,18.103 28,17 L28,5 C28,3.897 28.897,3 30,3 Z M22,5 C22,3.897 22.897,3 24,3 C25.103,3 26,3.897 26,5 L26,17 C26,17.872 25.435,18.627 24.637,18.895 L22,16.551 L22,12.5 L22,5 Z M2,16.919 L2,14 L9,14 L9,6 L2,6 L2,3.081 C3.216,2.372 4.589,2 6,2 C9.051,2 11.794,3.704 13.158,6.446 L13.435,7 L20,7 L20,8.762 C19.284,8.282 18.425,8 17.5,8 C15.019,8 13,10.019 13,12.5 L13,13.824 C11.592,16.402 8.946,18 6,18 C4.589,18 3.216,17.628 2,16.919 Z M47.5,25.571 L47.841,26.222 C48.371,27.237 48.805,28.272 49.128,29.3 L49.349,30 L56,30 L56,40 L49.349,40 L49.128,40.7 C48.806,41.723 48.373,42.759 47.84,43.779 L47.5,44.43 L52.213,49.143 L45.143,56.214 L40.429,51.5 L39.779,51.84 C38.758,52.373 37.723,52.806 36.701,53.127 L36.001,53.347 L36.001,60 L26,60 L26,53.348 L25.3,53.128 C24.278,52.807 23.242,52.374 22.222,51.841 L21.572,51.501 L16.858,56.214 L9.788,49.143 L14.501,44.43 L14.161,43.779 C13.628,42.759 13.195,41.723 12.873,40.7 L12.651,40 L6,40 L6,30 L12.651,30 L12.872,29.3 C13.195,28.272 13.629,27.237 14.159,26.222 L14.5,25.571 L9.787,20.858 L13,17.645 L13,21.185 C13,22.626 13.622,23.998 14.708,24.948 L17.887,27.73 C16.656,29.947 16,32.447 16,35 C16,43.271 22.729,50 31,50 C39.271,50 46,43.271 46,35 C46,32.322 45.298,29.736 43.963,27.451 L46,25.414 L46,17 L46,15 L46.356,15 L52.213,20.858 L47.5,25.571 Z M60,14 L60,16.919 C58.784,17.628 57.411,18 56,18 C52.949,18 50.206,16.296 48.842,13.554 L48.565,13 L46,13 L46,7 L48.565,7 L48.841,6.446 C50.206,3.704 52.949,2 56,2 C57.411,2 58.784,2.372 60,3.081 L60,6 L53,6 L53,14 L60,14 Z" id="Shape"></path>
        </g>
    </g>
</svg>