<?xml version="1.0" encoding="UTF-8"?>
<svg width="96px" height="94px" viewBox="0 0 96 94" version="1.1" xmlns="http://www.w3.org/2000/svg" xmlns:xlink="http://www.w3.org/1999/xlink">
    <!-- Generator: Sketch 52.3 (67297) - http://www.bohemiancoding.com/sketch -->
    <title>Group</title>
    <desc>Created with Sketch.</desc>
    <g id="Page-1" stroke="none" stroke-width="1" fill="none" fill-rule="evenodd">
        <g id="noun_event_1757908" fill="#FFFFFF">
            <g id="Group">
                <path d="M43.6,75.4 C44.3,76.1 45.3,76.1 46,75.4 L66,55.4 C66.7,54.7 66.7,53.7 66,53 L60.3,47.3 C59.6,46.6 58.6,46.6 57.9,47.3 L44.8,60.5 L38,53.7 C37.3,53 36.3,53 35.6,53.7 L30,59.4 C29.3,60.1 29.3,61.1 30,61.8 L43.6,75.4 Z" id="Path"></path>
                <path d="M79.9,9.4 L76.2,9.4 L76.2,14.3 C76.2,18.8 72.6,22.4 68.1,22.4 C63.6,22.4 60,18.8 60,14.3 L60,9.4 L35.9,9.4 L35.9,14.3 C35.9,18.8 32.3,22.4 27.8,22.4 C23.3,22.4 19.7,18.8 19.7,14.3 L19.7,9.4 L16,9.4 C7.5,9.4 0.5,16.4 0.5,24.9 L0.5,78 C0.5,86.6 7.5,93.6 16,93.6 L79.9,93.6 C88.5,93.6 95.5,86.6 95.5,78 L95.5,24.9 C95.5,16.4 88.5,9.4 79.9,9.4 Z M87.4,78 C87.4,82.1 84.1,85.5 79.9,85.5 L16,85.5 C11.9,85.5 8.6,82.2 8.6,78 L8.6,37.9 L87.4,37.9 L87.4,78 Z" id="Shape" fill-rule="nonzero"></path>
                <path d="M27.8,18.3 C30,18.3 31.9,16.5 31.9,14.2 L31.9,4.5 C31.9,2.3 30.1,0.4 27.8,0.4 C25.5,0.4 23.7,2.2 23.7,4.5 L23.7,14.2 C23.8,16.5 25.6,18.3 27.8,18.3 Z" id="Path"></path>
                <path d="M68.2,18.3 C70.4,18.3 72.3,16.5 72.3,14.2 L72.3,4.5 C72.3,2.3 70.5,0.4 68.2,0.4 C65.9,0.4 64.1,2.2 64.1,4.5 L64.1,14.2 C64.1,16.5 65.9,18.3 68.2,18.3 Z" id="Path"></path>
            </g>
        </g>
    </g>
</svg>