<?xml version="1.0" encoding="UTF-8"?>
<svg width="98px" height="75px" viewBox="0 0 98 75" version="1.1" xmlns="http://www.w3.org/2000/svg" xmlns:xlink="http://www.w3.org/1999/xlink">
    <!-- Generator: Sketch 52.3 (67297) - http://www.bohemiancoding.com/sketch -->
    <title>noun_Hour Glass_1113275</title>
    <desc>Created with Sketch.</desc>
    <g id="Page-1" stroke="none" stroke-width="1" fill="none" fill-rule="evenodd">
        <g id="noun_Hour-Glass_1113275" fill="#FFFFFF">
            <path d="M90.1,50 L70.4,55.5 L70.4,55.6 C70.9,57.6 70.6,59.6 69.6,61.4 C68.5,63.3 66.8,64.7 64.7,65.2 C62.6,65.8 60.4,65.5 58.5,64.5 L47.2,58.1 L48.3,56.2 L59.6,62.6 C61,63.4 62.6,63.6 64.1,63.1 C65.6,62.7 66.9,61.7 67.6,60.3 C68,59.6 68.2,58.8 68.3,58 C68.6,56 67.7,54.1 66,53.1 L38.6,37.9 C38.6,37.9 35.7,36 31.8,37.1 C31.8,37.1 31.8,37.1 31.7,37.1 C31,37.2 1.4,45.7 0.1,46.1 L6.2,67.3 L26,61.7 C28,62.9 43,72.3 45,73.3 C48.3,75.2 52.5,74.2 53.4,73.9 C53.5,73.9 93.7,62.4 93.7,62.4 C96.5,61.6 98.7,57.9 97.7,54.1 C96.7,51 93.3,49.1 90.1,50 Z" id="Path"></path>
            <path d="M86.1,39.6 L85.7,39.6 C86.6,27.8 75.7,22.8 75.7,22.8 C74.9,22.2 74.4,21.6 74.4,21 C74.4,20.2 75.3,19.4 75.6,19.2 C83.9,14.6 85.3,6.7 85.5,3.3 L86.2,3.3 C86.9,3.3 87.5,2.7 87.5,2 C87.5,1.3 86.9,0.7 86.2,0.7 L55.4,0.7 C54.7,0.7 54.1,1.3 54.1,2 C54.1,2.7 54.7,3.3 55.4,3.3 L56,3.3 C56.2,6.7 57.7,14.6 65.9,19.2 C66.3,19.5 67.2,20.3 67.2,21 C67.2,21.5 66.8,22.2 66,22.7 C64.9,23.2 55.1,28.3 55.9,39.6 L55.3,39.6 C54.6,39.6 54,40.2 54,40.9 C54,41.6 54.6,42.2 55.3,42.2 L86.2,42.2 C86.5,42.2 86.9,42.1 87.1,41.8 C87.3,41.6 87.5,41.3 87.5,40.9 C87.5,40.6 87.4,40.3 87.2,40 C86.9,39.8 86.5,39.6 86.1,39.6 Z M67.2,25.1 C67.3,25 67.4,25 67.4,25 C69,23.8 69.8,22.5 69.8,21.1 C69.8,19 67.8,17.4 67.4,17.2 L67.3,17 C59.9,12.9 58.8,5.7 58.6,3.3 L83,3.3 C82.8,5.7 81.7,12.9 74.3,17 C73.8,17.3 71.9,18.9 71.9,20.9 C71.9,22.4 72.7,23.7 74.3,24.8 C74.3,24.8 74.4,24.9 74.4,24.9 L74.4,25 L74.5,24.9 C74.5,24.9 74.6,24.9 74.6,24.9 C75.3,25.2 84,29.5 83.2,39.5 L80,39.5 C79.9,39.3 79.8,39.3 79.7,39.2 L71.6,31.3 C71.4,31.1 71,30.9 70.7,30.9 C70.7,30.9 70.7,30.9 70.7,30.9 C70.4,30.9 70,31 69.8,31.3 L61.6,39.3 C61.5,39.4 61.5,39.4 61.5,39.5 L58.5,39.5 C57.6,29.1 67,25.1 67.2,25.1 Z" id="Shape" fill-rule="nonzero"></path>
            <path d="M70.7,17.7 C70.9,17.7 71.1,17.6 71.3,17.5 L76,13.6 C76.3,13.3 76.4,13 76.3,12.6 C76.2,12.2 75.8,12 75.5,12 L66,12 C65.6,12 65.3,12.2 65.2,12.6 C65.1,12.9 65.2,13.3 65.5,13.6 L70.2,17.5 C70.3,17.7 70.5,17.7 70.7,17.7 Z" id="Path"></path>
        </g>
    </g>
</svg>