<?xml version="1.0" encoding="UTF-8"?>
<svg width="99px" height="88px" viewBox="0 0 99 88" version="1.1" xmlns="http://www.w3.org/2000/svg" xmlns:xlink="http://www.w3.org/1999/xlink">
    <!-- Generator: Sketch 52.2 (67145) - http://www.bohemiancoding.com/sketch -->
    <title>Untitled</title>
    <desc>Created with Sketch.</desc>
    <g id="Page-1" stroke="none" stroke-width="1" fill="none" fill-rule="evenodd">
        <g id="noun_learn_1195067" fill="#FFFFFF">
            <path d="M28.59,78.34 C32.8337077,78.3475765 36.8722716,80.1667494 39.69,83.34 L40.04,83.7 C40.4920405,84.1707235 40.9801948,84.6053815 41.5,85 C41.71,85.15 41.91,85.3 42.1,85.42 C42.5517256,85.7206331 43.0227431,85.9912176 43.51,86.23 L43.79,86.36 C44.05,86.49 44.31,86.6 44.59,86.7 C44.9335828,86.8294641 45.2841288,86.9396357 45.64,87.03 C45.88,87.1 46.2,87.19 46.58,87.26 C47.1212491,87.3672495 47.6691904,87.4374128 48.22,87.47 L48.99,87.47 C49.8162711,87.4686369 50.6403474,87.3848893 51.45,87.22 C51.77,87.16 52.04,87.09 52.18,87.04 C52.6006598,86.9345571 53.0147159,86.8043298 53.42,86.65 L53.51,86.65 L54.13,86.38 L54.38,86.26 C54.9101368,86.0069383 55.4214476,85.7161929 55.91,85.39 L56.44,85.02 C56.9982598,84.5941443 57.5200649,84.1225128 58,83.61 L58.33,83.25 C61.1183404,80.1054014 65.1272908,78.3159517 69.33,78.34 L73.41,78.34 C74.7907119,78.34 75.91,77.2207119 75.91,75.84 C75.91,74.4592881 74.7907119,73.34 73.41,73.34 L69.38,73.34 C63.7120645,73.3117622 58.310003,75.7410485 54.57,80 L54.48,80.1 L54.4,80.18 C54.0915979,80.4914203 53.7570369,80.7757972 53.4,81.03 L53.1,81.24 C52.7807068,81.444868 52.4464267,81.6253793 52.1,81.78 L51.94,81.86 L51.55,82.03 C51.304692,82.1212059 51.0542655,82.1980034 50.8,82.26 L50.37,82.36 C49.8861915,82.4586553 49.3937635,82.5089031 48.9,82.51 L48.46,82.51 C48.1240473,82.4899939 47.7899014,82.4465549 47.46,82.38 C47.25,82.38 47.08,82.29 46.87,82.23 C46.6634366,82.1775452 46.4598146,82.114122 46.26,82.04 L45.81,81.85 L45.63,81.76 C45.3291773,81.6129155 45.0385287,81.445876 44.76,81.26 L44.5,81 C44.1798081,80.7569541 43.8789094,80.4894886 43.6,80.2 L43.41,80 C39.6386629,75.7816078 34.2484288,73.3701873 28.59,73.37 L5,73.37 L5,16.47 L11.24,16.47 L11.24,63.55 C11.24,64.9307119 12.3592881,66.05 13.74,66.05 L29.29,66.05 C36.1009954,66.0577489 42.585979,68.9674443 47.12,74.05 C47.7148472,74.7163003 48.6199757,75.01464 49.4944323,74.8326374 C50.3688889,74.6506347 51.0798229,74.0159403 51.3594323,73.1676374 C51.6390417,72.3193344 51.4448472,71.3863003 50.85,70.72 C45.376348,64.5563273 37.5332586,61.020389 29.29,61 L16.24,61 L16.24,5.53 L29.29,5.53 C35.7739236,5.53613444 41.9775773,8.17422105 46.48,12.84 L46.48,18.55 C46.48,19.9307119 47.5992881,21.05 48.98,21.05 C50.3607119,21.05 51.48,19.9307119 51.48,18.55 L51.48,12.83 C55.9824227,8.16422105 62.1860764,5.52613444 68.67,5.52 L81.73,5.52 L81.73,26.28 C81.73,27.6607119 82.8492881,28.78 84.23,28.78 C85.6107119,28.78 86.73,27.6607119 86.73,26.28 L86.73,16.47 L93,16.47 L93,59.55 C93,60.9307119 94.1192881,62.05 95.5,62.05 C96.8807119,62.05 98,60.9307119 98,59.55 L98,15.25 C98,14.2474817 97.6017511,13.2860239 96.8928636,12.5771364 C96.1839761,11.8682489 95.2225183,11.47 94.22,11.47 L86.73,11.47 L86.73,3 C86.73,1.61928813 85.6107119,0.5 84.23,0.5 L68.68,0.5 C61.374421,0.513157949 54.3441263,3.28883829 49,8.27 C43.64369,3.29271435 36.6018686,0.527432883 29.29,0.53 L13.74,0.53 C12.3709195,0.529901423 11.256429,1.63101808 11.24,3 L11.24,11.44 L3.78,11.44 C2.77226212,11.4399683 1.80622983,11.8423326 1.0964736,12.5577218 C0.386717371,13.2731111 -0.00799792018,14.2422939 -2.77555756e-15,15.25 L-2.77555756e-15,74.57 C-2.22044605e-15,76.6576364 1.69236365,78.35 3.78,78.35 L28.59,78.34 Z" id="Path"></path>
            <path d="M81.41,55.15 C86.4823775,45.3030481 83.626017,33.2287544 74.6792963,26.6982365 C65.7325756,20.1677186 53.3622,21.1274961 45.5298481,28.9598481 C37.6974961,36.7922 36.7377186,49.1625756 43.2682365,58.1092963 C49.7987544,67.056017 61.8730481,69.9123775 71.72,64.84 L86.3,79.42 C88.0309518,81.1527381 90.554822,81.8304024 92.9208931,81.1977232 C95.2869642,80.565044 97.1357738,78.7181405 97.7708931,76.3527232 C98.4060124,73.9873059 97.7309518,71.4627381 96,69.73 L81.41,55.15 Z M46.9065607,35.1483384 C51.5397517,28.2145815 60.4257054,25.5192624 68.1301168,28.7107338 C75.8345281,31.9022051 80.2116054,40.0915954 78.5844979,48.2705907 C76.9573903,56.449586 69.7792711,62.3402161 61.44,62.34 C56.801428,62.3531689 52.3505084,60.5094222 49.08,57.22 C43.1833529,51.3231367 42.2733696,42.0820952 46.9065607,35.1483384 Z M89.84,75.88 L76,62 C76.47,61.6 76.93,61.19 77.37,60.75 C77.81,60.31 78.22,59.85 78.62,59.38 L92.46,73.26 C92.8080769,73.6070918 93.0037075,74.078441 93.0037075,74.57 C93.0037075,75.061559 92.8080769,75.5329082 92.46,75.88 C91.7262985,76.5784128 90.5737015,76.5784128 89.84,75.88 Z" id="Shape" fill-rule="nonzero"></path>
        </g>
    </g>
</svg>