<?xml version="1.0" encoding="UTF-8"?>
<svg width="36px" height="36px" viewBox="0 0 36 36" version="1.1" xmlns="http://www.w3.org/2000/svg" xmlns:xlink="http://www.w3.org/1999/xlink">
    <!-- Generator: Sketch 52.2 (67145) - http://www.bohemiancoding.com/sketch -->
    <title>Untitled</title>
    <desc>Created with Sketch.</desc>
    <g id="Page-1" stroke="none" stroke-width="1" fill="none" fill-rule="evenodd">
        <g id="logo-small" fill="#2A2A2A" fill-rule="nonzero">
            <path d="M18,0 C8.064,0 0,8.064 0,18 C0,27.936 8.064,36 18,36 C27.936,36 36,27.936 36,18 C36,8.064 27.936,0 18,0 Z M30.6,20.88 L24.12,20.88 L20.88,24.12 L20.88,30.6 L15.12,30.6 L15.12,24.12 L11.88,20.88 L5.4,20.88 L5.4,15.12 L11.88,15.12 L15.12,11.88 L15.12,5.4 L20.88,5.4 L20.88,11.88 L24.12,15.12 L30.6,15.12 L30.6,20.88 Z" id="Shape"></path>
        </g>
    </g>
</svg>