<?xml version="1.0" encoding="UTF-8"?>
<svg width="98px" height="100px" viewBox="0 0 98 100" version="1.1" xmlns="http://www.w3.org/2000/svg" xmlns:xlink="http://www.w3.org/1999/xlink">
    <!-- Generator: Sketch 52.2 (67145) - http://www.bohemiancoding.com/sketch -->
    <title>Untitled</title>
    <desc>Created with Sketch.</desc>
    <g id="Page-1" stroke="none" stroke-width="1" fill="none" fill-rule="evenodd">
        <g id="noun_Repair_796215" fill="#FFFFFF" fill-rule="nonzero">
            <path d="M60.22,53.61 L60.22,41.44 C60.22,39.8715113 58.9484887,38.6 57.38,38.6 C55.8115113,38.6 54.54,39.8715113 54.54,41.44 L54.54,53.61 L48,53.61 L48,43.47 C47.9907629,39.7706252 46.3651647,36.2600639 43.55,33.86 C38.7740935,29.7738511 36.0521329,23.7830539 36.1158131,17.4980049 C36.1794934,11.2129559 39.0222805,5.27854078 43.88,1.29 C44.5704718,0.737908235 45.5170657,0.632569666 46.3120179,1.01936095 C47.1069702,1.40615222 47.6082806,2.21598191 47.6,3.1 L47.6,12.89 C47.5920262,14.5042478 48.2263297,16.0554032 49.3630899,17.2015426 C50.4998501,18.347682 52.0457412,18.9947096 53.66,19 L61.09,19 C64.4534141,19 67.18,16.2734141 67.18,12.91 L67.18,3.09 C67.1756113,2.20778728 67.6783954,1.40150557 68.4725371,1.01724342 C69.2666789,0.632981275 70.2109378,0.739080874 70.9,1.29 C75.7609003,5.27658193 78.6060665,11.2116832 78.6697591,17.4979484 C78.7334517,23.7842136 76.0091264,29.7757451 71.23,33.86 C68.4148353,36.2600639 66.7892371,39.7706252 66.78,43.47 L66.78,53.61 L60.22,53.61 Z M95.56,52 C92.6552904,49.7280465 88.4783914,50.1373738 86.07,52.93 L74.64,65.81 C74.64,65.86 74.64,65.91 74.64,65.97 C74.3300092,72.2378864 69.1455026,77.1536972 62.87,77.13 L50.53,77.13 C49.2708268,76.9704076 48.3268596,75.8992466 48.3268596,74.63 C48.3268596,73.3607534 49.2708268,72.2895924 50.53,72.13 L62.87,72.13 C66.4394602,72.1840337 69.4167227,69.4140769 69.62,65.85 C69.6740778,64.0987463 69.0166924,62.4002308 67.7977192,61.1416927 C66.5787459,59.8831546 64.9020875,59.1718691 63.15,59.17 L42.58,59.17 L39.24,58 C30.8600098,55.0689502 21.5421264,57.1771214 15.24,63.43 L0,78.52 L21.24,99.22 L27.24,93.22 L61.48,93.22 C66.1028996,93.2213657 70.5004436,91.223145 73.54,87.74 L96.34,61.6 C97.5331817,60.2338025 98.1233941,58.443274 97.9765,56.6353469 C97.8296059,54.8274198 96.9580824,53.1556573 95.56,52 Z" id="Shape"></path>
        </g>
    </g>
</svg>