<?xml version="1.0" encoding="UTF-8"?>
<svg width="96px" height="50px" viewBox="0 0 96 50" version="1.1" xmlns="http://www.w3.org/2000/svg" xmlns:xlink="http://www.w3.org/1999/xlink">
    <!-- Generator: Sketch 52.2 (67145) - http://www.bohemiancoding.com/sketch -->
    <title>Untitled</title>
    <desc>Created with Sketch.</desc>
    <g id="Page-1" stroke="none" stroke-width="1" fill="none" fill-rule="evenodd">
        <g id="noun_teach_1807253" fill="#FFFFFF">
            <g id="Group">
                <path d="M39.1,26.9 L19.3,26.9 C18.5,26.9 17.9,27.5 17.9,28.3 C17.9,29.1 18.5,29.7 19.3,29.7 L30.3,29.7 L30.3,46.7 L28,46.7 C27.2,46.7 26.6,47.3 26.6,48.1 C26.6,48.9 27.2,49.5 28,49.5 L39,49.5 C39.8,49.5 40.4,48.9 40.4,48.1 L40.4,28.3 C40.5,27.6 39.8,26.9 39.1,26.9 Z" id="Path"></path>
                <path d="M22.6,33.3 C22.5,32.2 21.6,31.4 20.5,31.4 C20.5,31.4 20.5,31.4 20.5,31.4 L15,31.4 L14.5,23.8 C16,24.7 17.8,25.2 19.6,25.2 L23.3,25.2 C24.3,25.2 25.1,24.4 25.1,23.4 C25.1,22.4 24.3,21.6 23.3,21.6 L19.6,21.6 C18.4,21.6 17.2,21.2 16.1,20.6 L12.5,18.3 C11.8,17.8 11,17.6 10.2,17.6 C10.2,17.6 10.2,17.6 10.2,17.6 L9.5,17.6 C8.3,17.6 7.1,18.1 6.3,19.1 C5.5,20 5.1,21.3 5.3,22.6 L7,33.9 C7.2,34.9 8.1,35.7 9.1,35.7 C9.1,35.7 9.1,35.7 9.1,35.7 L18.5,35.7 L19.8,47.4 C19.9,48.5 20.8,49.3 21.9,49.3 C22,49.3 22.1,49.3 22.1,49.3 C23.3,49.2 24.1,48.1 24,46.9 L22.6,33.3 Z" id="Path"></path>
                <path d="M15.6,37.4 L8.4,37.4 C6.8,37.4 5.4,36.2 5.2,34.6 L3.3,22.6 C3.2,21.8 2.4,21.3 1.7,21.4 C0.9,21.5 0.4,22.3 0.5,23 L2.4,35 C2.9,38 5.4,40.2 8.4,40.2 L15.6,40.2 C16.4,40.2 17,39.6 17,38.8 C17.1,38.1 16.4,37.4 15.6,37.4 Z" id="Path"></path>
                <circle id="Oval" cx="9.7" cy="11.6" r="4.7"></circle>
                <path d="M91.7,3.1 L81.4,3.1 L81.4,1.8 C81.4,1.1 80.8,0.5 80.1,0.5 C79.4,0.5 78.8,1.1 78.8,1.8 L78.8,3.1 L68.3,3.1 C66.2,3.1 64.5,4.8 64.5,6.9 L64.5,14.7 C64.8,15 65,15.4 65.3,15.7 C65.5,15.9 65.8,16.3 66,16.6 C66.3,16.7 66.7,16.8 67.2,16.9 L67.2,7 C67.2,6.4 67.7,5.9 68.3,5.9 L91.7,5.9 C92.3,5.9 92.8,6.4 92.8,7 L92.8,26.2 C92.8,26.8 92.3,27.3 91.7,27.3 L68.3,27.3 C67.7,27.3 67.2,26.8 67.2,26.2 L67.2,25.5 C66.4,25.4 65.5,25.2 64.5,25 L64.5,26.2 C64.5,28.3 66.2,30 68.3,30 L78.7,30 L78.7,42.8 L73.6,46.9 C73,47.4 72.9,48.2 73.4,48.8 C73.7,49.1 74,49.3 74.4,49.3 C74.7,49.3 75,49.2 75.2,49 L80,45 L84.8,48.9 C85,49.1 85.3,49.2 85.6,49.2 C86,49.2 86.4,49 86.6,48.7 C87.1,48.1 87,47.3 86.4,46.8 L81.3,42.7 L81.3,29.8 L91.7,29.8 C93.8,29.8 95.5,28.1 95.5,26 L95.5,6.9 C95.5,4.8 93.8,3.1 91.7,3.1 Z" id="Path"></path>
                <path d="M60.3,19.4 C61.2,20.6 62,21.6 63,22.1 C65.1,23 68.9,23.3 69.3,23.4 C70.4,23.5 71.4,22.7 71.5,21.6 C71.6,20.9 71.3,20.3 70.8,19.9 L74.7,12.7 C74.9,12.3 74.8,11.8 74.4,11.6 C74,11.4 73.5,11.5 73.3,11.9 L69.3,19.3 C67.9,19.2 65.8,18.8 64.8,18.4 C64.6,18.2 63.9,17.4 63.5,16.9 C62.1,15.1 60.3,12.8 57.8,12.8 L52.4,12.8 C48.5,12.8 46.3,17.8 45.8,19.5 C45.4,20.9 45.2,25.3 45.1,26.6 C45,27.7 45.9,28.6 47,28.7 C47,28.7 47.1,28.7 47.1,28.7 C48.2,28.7 49,27.9 49.1,26.8 C49.2,24.3 49.5,21.1 49.7,20.5 C49.8,20 50.2,19.3 50.5,18.6 L50.7,28.3 L48.1,46.8 C47.9,48.1 48.8,49.3 50.1,49.4 C51.4,49.6 52.6,48.7 52.7,47.4 L55.1,30.4 L57.5,47.4 C57.7,48.6 58.7,49.4 59.8,49.4 C59.9,49.4 60,49.4 60.1,49.4 C61.4,49.2 62.3,48 62.1,46.8 L59.5,28.3 L59.7,18.4 C60,18.9 60.2,19.2 60.3,19.4 Z" id="Path"></path>
                <circle id="Oval" cx="55.1" cy="6.6" r="4.7"></circle>
            </g>
        </g>
    </g>
</svg>