<?xml version="1.0" standalone="no"?>
<!DOCTYPE svg PUBLIC "-//W3C//DTD SVG 20010904//EN"
 "http://www.w3.org/TR/2001/REC-SVG-20010904/DTD/svg10.dtd">
<svg version="1.0" xmlns="http://www.w3.org/2000/svg"
 width="700.000000pt" height="700.000000pt" viewBox="0 0 700.000000 700.000000"
 preserveAspectRatio="xMidYMid meet">
<metadata>
Created by potrace 1.11, written by Peter Selinger 2001-2013
</metadata>
<g transform="translate(0.000000,700.000000) scale(0.100000,-0.100000)"
fill="#000000" stroke="none">
<path d="M3298 6995 c-2 -1 -41 -5 -88 -9 -100 -7 -225 -22 -295 -36 -27 -5
-61 -12 -75 -14 -83 -14 -199 -42 -300 -71 -131 -38 -370 -122 -385 -136 -5
-5 -15 -9 -22 -9 -14 0 -284 -131 -358 -175 -316 -184 -558 -374 -810 -635
-339 -351 -614 -804 -776 -1277 -33 -97 -83 -266 -94 -321 -2 -9 -8 -37 -14
-62 -11 -49 -13 -63 -35 -195 -34 -204 -40 -302 -40 -570 0 -284 13 -419 69
-705 20 -102 99 -387 124 -445 5 -11 14 -36 21 -55 7 -19 16 -44 20 -55 243
-590 553 -1016 1050 -1439 109 -92 341 -249 501 -338 255 -142 458 -226 774
-321 107 -32 352 -82 455 -92 30 -3 60 -8 67 -10 79 -26 663 -26 843 1 144 21
295 48 345 61 33 8 67 16 75 18 44 9 208 58 299 90 444 155 844 392 1194 708
94 85 246 239 293 297 16 19 39 46 52 60 29 32 145 185 204 270 126 183 270
452 356 670 104 262 194 598 217 820 4 30 8 61 11 68 25 77 25 611 0 812 -2
19 -7 58 -10 86 -4 28 -8 59 -10 70 -2 10 -11 60 -21 109 -71 381 -219 772
-423 1115 -88 148 -224 343 -297 426 -5 7 -19 22 -29 35 -95 118 -283 308
-426 430 -54 46 -209 164 -295 225 -226 158 -601 343 -860 424 -22 7 -49 16
-60 21 -47 19 -323 87 -422 103 -47 8 -235 34 -293 41 -55 7 -526 16 -532 10z
m762 -1676 l0 -630 315 -315 315 -314 630 0 630 0 0 -560 0 -560 -630 0 -631
0 -314 -314 -315 -314 0 -631 0 -631 -560 0 -560 0 0 631 0 630 -315 315 -314
314 -631 0 -630 0 0 560 0 560 631 0 630 0 315 314 314 315 0 630 0 631 560 0
560 0 0 -631z"/>
</g>
</svg>
