<?xml version="1.0" standalone="no"?>
<!DOCTYPE svg PUBLIC "-//W3C//DTD SVG 20010904//EN"
 "http://www.w3.org/TR/2001/REC-SVG-20010904/DTD/svg10.dtd">
<svg version="1.0" xmlns="http://www.w3.org/2000/svg"
 width="900.000000pt" height="900.000000pt" viewBox="0 0 900.000000 900.000000"
 preserveAspectRatio="xMidYMid meet">
<metadata>
Created by potrace 1.11, written by Peter Selinger 2001-2013
</metadata>
<g transform="translate(0.000000,900.000000) scale(0.100000,-0.100000)"
fill="#000000" stroke="none">
<path d="M2215 6399 c-83 -11 -158 -24 -205 -34 -14 -3 -34 -8 -46 -10 -48
-10 -214 -65 -274 -90 -493 -206 -869 -582 -1075 -1075 -25 -60 -80 -226 -90
-274 -2 -12 -7 -32 -10 -46 -37 -150 -55 -490 -35 -631 5 -30 11 -72 14 -94
23 -163 86 -366 174 -555 70 -151 223 -367 358 -506 315 -322 700 -514 1164
-579 95 -14 395 -14 490 0 331 46 659 179 915 370 120 90 157 123 225 205 77
92 231 276 267 316 10 12 36 43 58 70 22 26 81 96 130 154 50 58 137 161 195
230 57 69 109 130 115 136 5 6 28 33 50 60 22 26 58 69 80 94 22 26 95 111
162 191 302 358 488 578 527 624 24 28 92 109 152 180 112 134 134 159 134
153 0 -2 39 35 88 82 190 187 439 312 694 347 64 9 297 10 353 1 22 -4 57 -10
78 -13 122 -20 315 -103 450 -192 93 -62 269 -238 329 -329 91 -137 168 -319
193 -454 17 -94 25 -160 19 -160 -3 0 -72 45 -154 100 -82 55 -151 100 -153
100 -3 0 -17 -19 -32 -41 -18 -29 -24 -44 -16 -52 5 -5 88 -63 183 -127 l173
-117 -2 -64 c-5 -117 -43 -271 -98 -396 l-24 -54 -293 197 c-161 109 -333 225
-383 259 -49 34 -209 142 -355 240 -146 98 -287 194 -315 213 -50 34 -50 34
-51 92 -4 165 -115 288 -275 305 -59 6 -157 -13 -150 -30 3 -5 41 -35 85 -65
l81 -55 -1 -94 0 -93 -81 -33 -81 -33 -98 65 -97 65 6 -62 c12 -109 72 -196
171 -248 69 -36 189 -38 255 -5 l45 22 32 -24 c18 -14 37 -25 42 -25 6 0 12
-3 14 -8 2 -4 80 -59 173 -121 94 -63 240 -162 325 -220 188 -127 590 -399
717 -484 51 -34 93 -66 93 -71 0 -5 -46 -55 -102 -111 -110 -107 -197 -171
-324 -234 -99 -50 -272 -107 -285 -94 -5 5 -1 29 10 61 21 56 21 57 21 71 0 5
34 17 75 26 l75 17 0 79 c0 55 -4 81 -12 83 -7 2 -40 9 -73 16 l-61 12 -21 66
-21 67 50 58 50 57 -46 65 -46 64 -67 -29 -68 -28 -25 19 c-14 11 -40 30 -58
42 -29 19 -32 26 -27 57 2 19 7 53 10 76 l5 40 -75 27 -75 26 -39 -61 -39 -61
-98 -1 -98 -1 -39 62 -40 61 -74 -26 -74 -26 6 -56 c3 -30 8 -64 10 -75 3 -15
-10 -30 -54 -62 l-59 -43 -68 28 -68 28 -44 -63 c-48 -71 -49 -63 18 -136 19
-21 35 -41 34 -45 0 -4 -8 -35 -19 -69 -32 -108 4 -133 -481 345 -29 28 -55
52 -57 52 -5 0 -441 -442 -491 -499 l-20 -22 155 -150 c85 -83 225 -220 313
-304 228 -222 379 -331 606 -438 264 -125 531 -184 830 -184 134 0 312 17 415
40 303 69 618 224 847 417 650 548 872 1451 551 2243 -113 280 -313 555 -542
747 -29 25 -63 53 -75 63 -11 11 -57 43 -101 72 -335 222 -701 334 -1095 333
-190 -1 -312 -16 -485 -59 -389 -99 -751 -325 -1005 -629 -52 -62 -166 -193
-234 -270 -17 -19 -129 -147 -249 -285 -121 -137 -231 -264 -245 -280 -15 -17
-56 -64 -92 -105 -36 -41 -68 -77 -71 -80 -3 -3 -56 -63 -118 -135 -62 -71
-132 -151 -155 -176 -22 -25 -52 -59 -66 -75 -43 -51 -312 -357 -354 -404 -23
-25 -66 -74 -96 -110 -30 -35 -82 -94 -114 -130 -32 -36 -71 -80 -85 -98 -24
-31 -92 -87 -171 -141 -57 -39 -200 -108 -280 -135 -96 -32 -203 -53 -309 -62
-70 -5 -82 -4 -76 7 9 15 173 266 328 500 76 116 104 151 134 166 21 10 84 42
140 71 l102 53 41 -27 c53 -35 133 -43 193 -20 159 60 181 282 38 376 -24 17
-54 31 -65 31 -101 6 -151 -8 -200 -58 -35 -36 -66 -106 -66 -147 0 -17 -28
-35 -138 -91 -75 -38 -150 -78 -165 -88 -15 -10 -93 -119 -173 -240 -81 -122
-191 -290 -246 -373 l-100 -152 -41 6 c-23 3 -61 10 -84 16 l-43 11 169 255
c92 140 252 383 355 540 103 157 197 300 209 318 15 22 50 47 107 76 47 24
109 57 139 74 l54 29 47 -29 c139 -86 321 7 323 166 2 71 -8 104 -41 145 -116
143 -352 82 -377 -98 l-7 -49 -106 -55 c-240 -124 -185 -67 -450 -467 -129
-195 -301 -456 -383 -580 -81 -124 -156 -237 -166 -251 l-18 -26 -51 24 -51
24 117 177 c64 97 170 258 235 357 65 99 219 332 342 518 123 186 223 343 223
348 0 6 -43 66 -95 133 -95 124 -95 124 -80 154 70 139 -52 313 -209 299 -66
-6 -105 -26 -149 -77 -36 -43 -47 -76 -47 -144 1 -116 109 -214 225 -203 l50
5 64 -84 c35 -47 61 -90 58 -98 -3 -7 -75 -119 -160 -247 -84 -129 -220 -335
-302 -459 -350 -531 -396 -600 -403 -600 -4 0 -26 17 -50 38 l-43 37 25 35
c13 19 98 148 188 285 91 138 235 357 322 488 l157 238 -23 32 c-12 18 -72
100 -133 182 -61 83 -116 158 -121 168 -8 13 -6 33 7 70 47 139 -51 278 -195
278 -127 0 -216 -90 -216 -220 0 -117 112 -215 235 -205 38 4 42 1 75 -46 19
-28 70 -96 112 -153 43 -56 76 -107 74 -113 -2 -6 -56 -89 -119 -185 -310
-473 -490 -744 -494 -749 -5 -6 -83 78 -83 89 0 4 32 57 72 117 39 60 126 192
193 294 67 102 125 191 129 198 5 9 -9 38 -40 83 -44 65 -46 71 -34 95 8 14
14 51 14 82 -2 154 -141 252 -286 203 -105 -36 -165 -168 -124 -274 37 -98
148 -161 238 -136 23 6 31 3 46 -18 l19 -26 -126 -191 c-70 -105 -140 -212
-156 -238 -17 -26 -33 -47 -36 -48 -7 0 -61 109 -88 177 -98 251 -105 572 -18
833 28 82 80 201 107 240 9 14 35 52 56 84 49 75 168 202 250 267 143 113 350
209 529 245 98 20 322 26 420 12 111 -16 252 -58 354 -106 l59 -28 -100 -103
c-55 -56 -98 -104 -96 -106 2 -1 134 -50 293 -108 160 -58 441 -160 625 -227
603 -219 550 -202 540 -177 -5 12 -48 121 -96 242 -47 121 -147 373 -221 560
-74 187 -159 403 -189 480 -30 76 -57 141 -59 143 -2 3 -49 -42 -103 -99 l-99
-102 -79 46 c-320 187 -648 276 -1014 274 -85 0 -177 -4 -205 -8z m243 -1159
c91 -55 61 -195 -44 -204 -93 -9 -152 81 -108 165 15 31 62 58 99 59 11 0 35
-9 53 -20z m-535 -61 c17 -18 44 -70 42 -84 -6 -59 -27 -89 -77 -109 -68 -27
-136 19 -145 98 -5 42 -3 48 31 82 34 34 40 36 85 32 27 -3 56 -11 64 -19z
m1432 -369 c65 -40 66 -143 2 -185 -71 -46 -164 -2 -172 82 -10 94 89 153 170
103z m-1724 -130 c61 -44 55 -149 -12 -182 -67 -35 -132 -14 -159 51 -42 102
80 195 171 131z m1755 -421 c68 -64 15 -189 -80 -189 -58 0 -99 37 -111 101
-5 26 -1 42 17 69 41 61 120 70 174 19z m3125 -269 c205 -62 350 -263 343
-475 -3 -86 -6 -105 -33 -175 -29 -77 -60 -113 -93 -108 l-27 3 33 50 c130
195 75 472 -118 601 -179 119 -410 98 -556 -49 -85 -86 -131 -196 -131 -313
l0 -64 -30 22 c-28 21 -29 25 -24 78 21 223 179 399 395 444 81 16 156 12 241
-14z m-77 -135 c163 -27 286 -196 270 -370 -10 -100 -119 -261 -171 -251 -10
2 -40 7 -68 10 -107 15 -248 58 -351 108 -52 25 -63 36 -73 66 -50 152 23 331
164 405 45 23 140 47 170 41 11 -1 38 -6 59 -9z"/>
<path d="M6604 5517 c-103 -41 -150 -140 -118 -246 17 -59 46 -86 219 -203 77
-52 236 -159 353 -238 116 -79 214 -141 216 -139 13 16 207 310 211 321 3 8
-25 31 -73 61 -42 27 -198 131 -347 233 -148 101 -283 191 -299 200 -37 21
-123 27 -162 11z m392 -244 c317 -213 349 -236 352 -262 4 -27 -14 -51 -40
-51 -10 0 -60 28 -111 62 -51 35 -100 67 -109 73 -92 54 -359 245 -367 261
-12 26 11 64 38 64 10 0 117 -66 237 -147z m-181 -88 c66 -45 190 -129 275
-187 138 -94 155 -108 158 -136 3 -32 -17 -52 -48 -47 -8 2 -141 88 -295 192
-253 172 -280 193 -283 220 -2 23 2 32 20 40 31 14 34 12 173 -82z"/>
<path d="M7562 4997 c-36 -19 -261 -362 -255 -388 7 -26 45 -44 67 -32 27 15
257 366 254 387 -5 30 -39 48 -66 33z"/>
</g>
</svg>
